<svg width="95" height="95" viewBox="0 0 95 95" fill="none" xmlns="http://www.w3.org/2000/svg">
<path d="M35.6243 77.1817H26.7181C23.771 77.1788 20.8582 76.5492 18.1731 75.3345C15.488 74.1198 13.0919 72.3479 11.1439 70.1364C9.19597 67.9249 7.74066 65.3244 6.87461 62.5074C6.00855 59.6904 5.75156 56.7215 6.12068 53.7976C6.4898 50.8737 7.4766 48.0618 9.01558 45.5484C10.5546 43.0351 12.6105 40.8778 15.047 39.2198C17.4834 37.5618 20.2447 36.441 23.1474 35.9318C26.0502 35.4226 29.0281 35.5365 31.8834 36.2662" stroke="black" stroke-width="3" stroke-linecap="round" stroke-linejoin="round"/>
<path d="M29.6875 47.4942C29.688 42.7903 30.8062 38.1539 32.9499 33.967C35.0937 29.78 38.2017 26.1625 42.0179 23.4123C45.834 20.6621 50.249 18.8581 54.8991 18.149C59.5492 17.4398 64.3013 17.8457 68.7637 19.3333C73.2261 20.8209 77.2712 23.3476 80.5656 26.7051C83.86 30.0627 86.3094 34.155 87.712 38.6449C89.1146 43.1348 89.4302 47.8937 88.6329 52.5294C87.8355 57.1652 85.948 61.5452 83.1259 65.3084" stroke="black" stroke-width="3" stroke-linecap="round" stroke-linejoin="round"/>
<path d="M43.8125 60.0897L56.4078 47.4941L69.0031 60.0897" stroke="black" stroke-width="3" stroke-linecap="round" stroke-linejoin="round"/>
<path d="M56.4062 77.1817V47.4942" stroke="black" stroke-width="3" stroke-linecap="round" stroke-linejoin="round"/>
</svg>
