<svg width="32" height="32" viewBox="0 0 32 32" fill="none" xmlns="http://www.w3.org/2000/svg">
<path d="M12 28H20" stroke="#171717" stroke-width="2" stroke-linecap="round" stroke-linejoin="round"/>
<path d="M7.02571 13C7.02406 11.814 7.25715 10.6394 7.71157 9.54394C8.16598 8.44846 8.83272 7.45374 9.67336 6.61714C10.514 5.78054 11.5119 5.1186 12.6096 4.66946C13.7072 4.22033 14.8829 3.99289 16.0689 4.00025C21.0176 4.03704 24.9759 8.15042 24.9759 13.113V14C24.9759 18.477 25.9126 21.0749 26.7376 22.4948C26.8264 22.6465 26.8737 22.819 26.8747 22.9948C26.8756 23.1706 26.8302 23.3436 26.7429 23.4962C26.6557 23.6489 26.5297 23.7759 26.3778 23.8643C26.2258 23.9527 26.0532 23.9995 25.8774 24H6.12329C5.94744 23.9995 5.77482 23.9527 5.62284 23.8643C5.47087 23.7758 5.34491 23.6488 5.25767 23.4961C5.17044 23.3434 5.12502 23.1704 5.12599 22.9946C5.12696 22.8187 5.17429 22.6463 5.26321 22.4946C6.08862 21.0746 7.02571 18.4767 7.02571 14L7.02571 13Z" stroke="#171717" stroke-width="2" stroke-linecap="round" stroke-linejoin="round"/>
</svg>
