<svg width="32" height="32" viewBox="0 0 32 32" fill="none" xmlns="http://www.w3.org/2000/svg">
<g clip-path="url(#clip0_81_6229)">
<path d="M26.3535 0.369713C26.2124 0.0547762 25.8428 -0.0863482 25.5276 0.0547138L20.2035 2.43858C18.8126 3.06139 17.8059 4.3257 17.5106 5.82075L17.3716 6.52394H13.0911L14.3171 5.65513C14.5945 5.45844 14.6625 5.06169 14.4656 4.78382C13.449 3.34945 11.7947 2.62952 10.1568 2.73445C8.50041 2.72764 6.5783 4.03382 6.02161 5.607C5.33861 7.13425 5.4548 8.97387 6.49017 10.4352C6.6868 10.7128 7.08348 10.7808 7.36142 10.5839L8.90466 9.49043C8.03617 13.7051 7.29054 18.043 7.29054 22.3583C7.29054 25.1247 7.68573 27.9906 8.86672 30.5177C9.28753 31.4182 10.2048 32.0002 11.2035 32.0002H13.0841C13.4292 32.0002 13.7091 31.7203 13.7091 31.3752C13.7091 31.03 13.4292 30.7502 13.0841 30.7502H11.2035C10.6882 30.7502 10.2154 30.4512 9.99916 29.9885C9.8276 29.6213 9.61941 29.1174 9.41466 28.4772C10.0763 28.9584 10.921 29.3383 11.939 29.3383H19.3832C20.4008 29.3383 21.2467 28.956 21.9097 28.4727C21.7045 29.115 21.4958 29.6205 21.3239 29.9885C21.1076 30.4512 20.6349 30.7502 20.1195 30.7502H18.5829C18.2378 30.7502 17.9579 31.0301 17.9579 31.3752C17.9579 31.7203 18.2378 32.0002 18.5829 32.0002H20.1195C21.1182 32.0002 22.0354 31.4183 22.4563 30.5177C23.7765 27.6927 24.1012 24.4871 24.0175 21.4042C23.9151 18.0106 23.3037 14.1177 22.7832 11.3408C22.7824 11.3362 22.781 11.3317 22.78 11.3271C22.308 8.81368 21.8759 7.02187 21.871 7.00194C21.8031 6.72156 21.5521 6.52406 21.2636 6.52406H18.6458L18.7369 6.06319C18.9537 4.96538 19.693 4.03689 20.7144 3.57957L26.0385 1.19571C26.3535 1.05452 26.4945 0.684774 26.3535 0.369713ZM10.5557 7.77393H17.1248L16.5209 10.8307H9.91266C10.1817 9.44899 10.422 8.36031 10.5557 7.77393ZM10.9293 6.52388H10.6999L10.7616 3.9857C11.6032 4.05239 12.4172 4.40832 13.0406 5.02763L10.9293 6.52388ZM8.37454 4.64138C8.72854 4.39063 9.11241 4.21251 9.50835 4.10351L9.45628 6.24563L7.51767 5.49607C7.74754 5.17344 8.03354 4.88301 8.37454 4.64138ZM7.19261 9.17149C6.80729 8.36218 6.74605 7.45675 6.97773 6.62744L9.32766 7.53606C9.31722 7.58193 9.3061 7.631 9.29447 7.68231L7.19261 9.17149ZM19.3833 28.0882H11.939C10.2069 28.0882 9.07379 26.4095 8.82835 26.0094C8.46635 23.8199 8.49391 21.597 8.67179 19.3912C8.86954 16.9388 9.2361 14.5003 9.67697 12.0807H16.2739L13.7086 25.0664C13.6418 25.4051 13.862 25.7338 14.2006 25.8007C14.2416 25.8087 14.2823 25.8126 14.3225 25.8126C14.6149 25.8126 14.8761 25.6064 14.935 25.3087L17.5481 12.0807H21.6462C22.0895 14.5134 22.4577 16.9653 22.6546 19.4312C22.8297 21.6237 22.8547 23.8326 22.4949 26.0089C22.245 26.4152 21.1108 28.0882 19.3833 28.0882ZM20.7674 7.77393C20.9012 8.36031 21.1414 9.44899 21.4105 10.8307H17.7951L18.3989 7.77393H20.7674Z" fill="black"/>
<path d="M20.0563 20.2683H18.2972C17.5588 20.2683 16.958 20.8691 16.958 21.6075V23.3666C16.958 24.105 17.5588 24.7058 18.2972 24.7058H20.0563C20.7947 24.7058 21.3955 24.1051 21.3955 23.3666V21.6075C21.3954 20.8691 20.7947 20.2683 20.0563 20.2683ZM20.1454 23.3666C20.1454 23.4158 20.1054 23.4558 20.0563 23.4558H18.2971C18.2479 23.4558 18.2079 23.4158 18.2079 23.3666V21.6075C18.2079 21.5583 18.2479 21.5183 18.2971 21.5183H20.0563C20.1054 21.5183 20.1454 21.5583 20.1454 21.6075V23.3666Z" fill="black"/>
<path d="M14.0233 15.427L13.0913 14.4949C12.624 14.0278 11.8637 14.0276 11.3963 14.495L10.4643 15.427C10.238 15.6534 10.1133 15.9544 10.1133 16.2746C10.1133 16.5948 10.238 16.8957 10.4643 17.1221L11.3963 18.0541C11.63 18.2877 11.9369 18.4046 12.2438 18.4046C12.5508 18.4046 12.8577 18.2877 13.0914 18.0541L14.0234 17.1221C14.4906 16.6547 14.4906 15.8944 14.0233 15.427ZM12.2438 17.1338L11.3846 16.2746L12.2438 15.4152L13.103 16.2746L12.2438 17.1338Z" fill="black"/>
<path d="M16.4271 31.1356C16.3289 30.8996 16.0901 30.7449 15.8345 30.7506C15.5567 30.7569 15.3119 30.9548 15.2439 31.2233C15.1077 31.7605 15.7205 32.1966 16.1855 31.902C16.4394 31.741 16.5409 31.413 16.4271 31.1356Z" fill="black"/>
</g>
<defs>
<clipPath id="clip0_81_6229">
<rect width="32" height="32" fill="white"/>
</clipPath>
</defs>
</svg>
