<svg width="32" height="32" viewBox="0 0 32 32" fill="none" xmlns="http://www.w3.org/2000/svg">
<path d="M24.6662 12.6663H5.99907C4.89636 12.6663 3.99902 13.5636 3.99902 14.6663V15.9997C3.99902 20.7571 6.62708 25.0719 10.8565 27.2599C11.1832 27.4279 11.5858 27.3012 11.7552 26.9732C11.9232 26.6465 11.7965 26.2439 11.4685 26.0745C7.68442 24.1172 5.33237 20.2571 5.33237 15.9996V14.6662C5.33237 14.2982 5.63106 13.9995 5.99907 13.9995H24.6662C25.0342 13.9995 25.3329 14.2982 25.3329 14.6662V15.9996C25.3329 20.257 22.9808 24.1171 19.1954 26.0731C18.8674 26.2425 18.7407 26.6452 18.9087 26.9719C19.0274 27.2012 19.2608 27.3332 19.5021 27.3332C19.6061 27.3332 19.7101 27.3092 19.8074 27.2585C24.0382 25.0717 26.6662 20.7583 26.6662 15.9995V14.6662C26.6662 13.5636 25.7688 12.6663 24.6662 12.6663Z" fill="#171717"/>
<path d="M30.6173 26.4105C30.5133 26.1612 30.2706 25.9985 30.0013 25.9985H0.66728C0.397962 25.9985 0.155268 26.1612 0.051266 26.4105C-0.0527364 26.6599 0.00457745 26.9466 0.195269 27.1373L1.68999 28.6333C2.5727 29.5146 3.74335 30 4.99007 30H25.6759C26.9226 30 28.0946 29.5147 28.9786 28.6333L30.4734 27.1373C30.664 26.9466 30.7213 26.6599 30.6173 26.4105ZM28.0346 27.6906C27.4053 28.3199 26.5666 28.6666 25.6772 28.6666H4.99007C4.10074 28.6666 3.26203 28.3199 2.6327 27.6906L2.27538 27.3333H28.3919L28.0346 27.6906Z" fill="#171717"/>
<path d="M30.7102 15.8142C28.9141 14.6595 26.0448 15.9129 25.7234 16.0582C25.3887 16.2115 25.2394 16.6062 25.3927 16.9422C25.546 17.2782 25.9394 17.4262 26.2767 17.2729C26.9194 16.9809 28.9808 16.2889 29.9888 16.9382C30.4435 17.2302 30.6661 17.7969 30.6661 18.6663C30.6661 21.3356 25.282 22.9491 23.2033 23.3464L22.7312 23.4397C22.3699 23.5104 22.1352 23.861 22.2059 24.2224C22.2686 24.5397 22.5472 24.7597 22.8593 24.7597C22.9019 24.7597 22.9446 24.7557 22.9886 24.7464L23.4566 24.6544C23.8059 24.5877 31.9995 22.9811 31.9995 18.6663C31.9995 17.3249 31.5649 16.3662 30.7102 15.8142Z" fill="#171717"/>
<path d="M20.5236 7.08196C21.6077 5.72724 21.6077 3.60588 20.5236 2.25116C20.293 1.96315 19.8756 1.91515 19.5863 2.14715C19.2983 2.37785 19.2516 2.79648 19.4823 3.08449C20.169 3.94182 20.169 5.39123 19.481 6.25125C18.3957 7.60597 18.3957 9.72733 19.481 11.0821C19.613 11.2474 19.8063 11.3327 20.0023 11.3327C20.1476 11.3327 20.2956 11.2847 20.4183 11.1861C20.7063 10.9554 20.753 10.5354 20.5223 10.2487C19.8343 9.39132 19.8343 7.94198 20.5236 7.08196Z" fill="#171717"/>
<path d="M16.5188 7.08189C17.6041 5.72717 17.6041 3.60581 16.5188 2.25109C16.2894 1.96309 15.8694 1.9164 15.5814 2.14709C15.2934 2.37778 15.2467 2.79779 15.4774 3.08442C16.1654 3.94176 16.1654 5.39117 15.4761 6.25119C14.3921 7.6059 14.3921 9.72727 15.4761 11.082C15.6081 11.2473 15.8014 11.3327 15.9974 11.3327C16.1427 11.3327 16.2894 11.2847 16.4134 11.186C16.7015 10.9553 16.7481 10.5367 16.5174 10.2487C15.8307 9.39126 15.8307 7.94191 16.5188 7.08189Z" fill="#171717"/>
<path d="M12.5236 7.08318C13.6077 5.72846 13.6077 3.6071 12.5236 2.25238C12.2943 1.96437 11.8756 1.91637 11.5863 2.14837C11.2996 2.37769 11.253 2.7977 11.4823 3.0844C12.169 3.94173 12.169 5.39114 11.481 6.25116C10.3957 7.60588 10.3957 9.72724 11.481 11.082C11.613 11.2473 11.8063 11.3327 12.0023 11.3327C12.1476 11.3327 12.2956 11.2846 12.4183 11.1873C12.7063 10.9566 12.753 10.5366 12.5223 10.25C11.8343 9.39123 11.8343 7.9432 12.5236 7.08318Z" fill="#171717"/>
</svg>
