<svg width="32" height="32" viewBox="0 0 32 32" fill="none" xmlns="http://www.w3.org/2000/svg">
<path d="M29.1852 10.7252C29.4303 10.1969 29.2491 9.56873 28.7602 9.25217C27.8446 8.68167 26.8333 8.28127 25.7753 8.07027C25.4457 7.44809 24.9488 6.93043 24.3406 6.57571C22.5302 5.43158 19.4094 4.32784 14.7684 5.4426C13.1201 3.7744 11.0364 3.51788 8.90818 4.33047C6.79513 5.14096 4.39094 7.24509 2.83238 8.8881C1.83828 9.92994 1.20615 10.6381 1.54031 12C0.993809 13.1595 0.63726 14.3994 0.484315 15.6721C0.0641626 18.9669 1.29595 22.257 3.77664 24.4658C4.91395 26.9261 7.67539 27.8279 10.3928 27.8279C10.9203 27.8199 11.4469 27.7803 11.9697 27.7093C12.1386 27.7885 12.3176 27.8441 12.5016 27.8746C14.2852 28.1437 18.0623 27.7046 18.4027 25.8943C18.5753 24.9715 17.8697 23.9879 16.2572 22.8999C16.3171 21.9793 16.0232 21.0705 15.4357 20.3593C15.7768 20.1129 16.036 19.7697 16.1795 19.3741C17.021 19.2554 17.7424 18.7125 18.0896 17.9368C19.699 18.3889 20.9779 18.2074 21.7019 16.7003C23.1088 17.2002 24.8179 16.9149 26.1934 16.3263C27.6011 17.136 29.2922 17.2906 30.8235 16.7496C33.332 15.7476 31.3465 12.3698 29.1852 10.7252ZM1.5209 15.8557C1.65775 14.6844 1.98133 13.5426 2.47933 12.4737C4.39012 11.5149 6.61106 11.384 8.62123 12.1117C12.5515 13.6015 14.8271 18.1712 15.2001 18.9702C15.1064 19.2575 14.9061 19.4978 14.6404 19.6417C13.3958 18.8781 12.057 18.28 10.6577 17.8628C6.35605 16.4296 3.18753 19.0316 3.27671 22.348C1.8489 20.5047 1.21677 18.1674 1.5209 15.8557ZM10.1378 26.775C8.85782 26.7541 5.77008 26.4335 4.68576 23.9396C3.25205 20.6379 6.07172 17.4394 10.3256 18.8585C11.505 19.2218 12.6445 19.7039 13.7265 20.2974C14.7678 20.9369 15.0585 21.4893 15.1644 22.2567C14.7543 22.0846 14.2991 22.0511 13.8682 22.1613C12.4271 22.5721 11.2928 23.6857 10.8555 25.1189C10.6685 25.6578 10.7122 26.25 10.9761 26.7556C10.6973 26.7778 10.4174 26.7843 10.1378 26.775ZM17.373 25.7012C17.309 26.0432 16.6852 26.5017 15.1267 26.7614C14.3137 26.9146 13.4819 26.9402 12.6611 26.8375C12.3581 26.788 12.0923 26.6072 11.935 26.3435C11.7777 26.0797 11.7449 25.76 11.8454 25.4699C12.1657 24.3599 13.0342 23.4925 14.1446 23.1737C14.4133 23.1086 14.6968 23.1541 14.9315 23.3002C17.3452 24.7323 17.4102 25.5003 17.373 25.7012ZM16.0615 18.3344C14.1299 14.3271 10.5439 10.5872 6.05494 10.5872C4.83218 10.5998 3.62344 10.8492 2.49559 11.3217C2.50451 10.7971 2.88484 10.3554 3.46346 9.74791C7.19802 5.83237 11.785 2.62607 14.7762 7.11027C17.5209 11.2262 18.696 17.8801 16.061 18.3344H16.0615ZM18.4321 16.9469C19.1109 13.8261 17.4538 9.08325 15.5191 6.34542C19.5264 5.50607 22.2086 6.46765 23.7845 7.46332C24.1398 7.67661 24.4487 7.9592 24.6926 8.29427C22.9443 9.28748 21.7663 11.0465 21.5136 13.0413C21.4081 13.9895 21.213 14.9255 20.9307 15.8368C20.5383 16.9505 19.9765 17.3802 18.4316 16.9469H18.4321ZM22.0654 15.7172C22.2822 14.886 22.4448 14.0415 22.5522 13.1892C22.7752 11.417 23.8667 9.87254 25.4627 9.07066C26.4266 9.25329 27.3488 9.61159 28.1832 10.1277C28.2697 10.1849 28.2797 10.3108 28.1428 10.3973C27.2751 11.0273 26.6205 11.9073 26.2669 12.9196C25.8853 13.7135 25.6498 14.5697 25.5718 15.447C24.4669 15.9305 23.2308 16.0257 22.0649 15.7172H22.0654ZM30.4358 15.7754C28.9701 16.3625 27.4734 15.8116 26.6246 15.3684C26.7274 14.6555 26.9353 13.9618 27.2416 13.3099C27.4886 12.611 27.9028 11.9832 28.4481 11.4811C29.684 12.364 31.0291 14.1371 30.9452 15.1533C30.9286 15.4495 30.7225 15.701 30.4353 15.7754H30.4358Z" fill="black"/>
<path d="M12.1701 6.16155C11.3454 5.89988 10.4539 5.94573 9.66045 6.2906C8.6923 6.71093 7.78813 7.26544 6.97455 7.93781C6.86963 8.01965 6.76471 8.10306 6.6598 8.18804C6.48493 8.32793 6.31007 8.47359 6.13521 8.62502C5.9304 8.81736 5.91349 9.1369 6.09684 9.34977C6.28019 9.56265 6.59871 9.59329 6.81927 9.41925C6.98399 9.27691 7.14941 9.1386 7.31553 9.0043C7.41468 8.92456 7.51435 8.84693 7.6156 8.76719C8.34847 8.15918 9.16196 7.65552 10.0329 7.27053C10.5858 7.02068 11.2095 6.97495 11.7929 7.14148C12.0635 7.24506 12.3668 7.10966 12.4704 6.83906C12.574 6.56845 12.4386 6.26512 12.168 6.16155H12.1701Z" fill="black"/>
<path d="M27.5402 17.8362C26.5261 17.8362 25.7041 18.6582 25.7041 19.6722C25.7041 20.6863 26.5261 21.5083 27.5402 21.5083C28.5542 21.5083 29.3762 20.6863 29.3762 19.6722C29.3762 18.6582 28.5542 17.8362 27.5402 17.8362ZM27.5402 20.4591C27.1056 20.4591 26.7533 20.1068 26.7533 19.6722C26.7533 19.2377 27.1056 18.8854 27.5402 18.8854C27.9748 18.8854 28.3271 19.2377 28.3271 19.6722C28.3271 20.1068 27.9748 20.4591 27.5402 20.4591Z" fill="black"/>
<path d="M24.131 19.4098C24.4208 19.4098 24.6556 19.1749 24.6556 18.8852C24.6556 18.5955 24.4208 18.3606 24.131 18.3606C23.8413 18.3606 23.6064 18.5955 23.6064 18.8852C23.6064 19.1749 23.8413 19.4098 24.131 19.4098Z" fill="black"/>
<path d="M22.0324 19.9344C22.3221 19.9344 22.557 19.6996 22.557 19.4098C22.557 19.1201 22.3221 18.8853 22.0324 18.8853C21.7427 18.8853 21.5078 19.1201 21.5078 19.4098C21.5078 19.6996 21.7427 19.9344 22.0324 19.9344Z" fill="black"/>
</svg>
