<svg width="32" height="32" viewBox="0 0 32 32" fill="none" xmlns="http://www.w3.org/2000/svg">
<g clip-path="url(#clip0_81_6239)">
<path d="M29.4436 27.2954H19.9207C21.2682 26.7359 22.4958 25.9443 23.5534 24.9706H25.3838C29.032 24.9706 32 22.0026 32 18.3543C32 16.413 30.4206 14.8336 28.4794 14.8336H27.5418V13.0913C27.5418 12.4363 27.0089 11.9033 26.3538 11.9033H4.05669C3.40162 11.9033 2.86869 12.4363 2.86869 13.0913V15.1706C2.86869 15.4295 3.07856 15.6394 3.33744 15.6394C3.59631 15.6394 3.80619 15.4295 3.80619 15.1706V13.0913C3.80619 12.9532 3.91856 12.8408 4.05669 12.8408H9.63075V14.9856C9.50312 15.0428 9.38544 15.1227 9.284 15.2251L7.52437 17.0013C7.31006 17.2177 7.192 17.5046 7.192 17.8092V21.7281C7.192 22.3611 7.70694 22.876 8.33988 22.876H11.8591C12.4921 22.876 13.0071 22.3611 13.0071 21.7281V17.8092C13.0071 17.5046 12.889 17.2177 12.6746 17.0013L10.9151 15.2251C10.8136 15.1227 10.6959 15.0428 10.5683 14.9856V12.8408H26.3539C26.492 12.8408 26.6044 12.9532 26.6044 13.0913V15.8946V15.8986C26.6033 22.1664 21.5047 27.2954 15.2053 27.2954C9.45344 27.2954 4.58956 22.9971 3.8915 17.2971C3.86006 17.0401 3.62631 16.857 3.36925 16.8888C3.11231 16.9202 2.9295 17.1541 2.96094 17.411C3.51456 21.9315 6.48875 25.6372 10.4878 27.2954H0.966875C0.43375 27.2954 0 27.7291 0 28.2623C0 29.6194 1.10413 30.7236 2.46131 30.7236H22.5863C22.8452 30.7236 23.0551 30.5137 23.0551 30.2548C23.0551 29.9959 22.8452 29.7861 22.5863 29.7861H2.46131C1.62106 29.7861 0.9375 29.1025 0.9375 28.2623C0.9375 28.2461 0.950688 28.2329 0.966875 28.2329H29.4436C29.4598 28.2329 29.473 28.2461 29.473 28.2623C29.473 29.1025 28.7894 29.7861 27.9492 29.7861H24.7738C24.5149 29.7861 24.305 29.9959 24.305 30.2548C24.305 30.5137 24.5149 30.7236 24.7738 30.7236H27.9492C29.3064 30.7236 30.4105 29.6194 30.4105 28.2623C30.4105 27.7291 29.9767 27.2954 29.4436 27.2954ZM12.0086 17.6611C12.0479 17.7008 12.0695 17.7533 12.0695 17.8092V21.7281C12.0695 21.8441 11.9751 21.9385 11.8591 21.9385H8.33981C8.22381 21.9385 8.12944 21.8441 8.12944 21.7281V17.8092C8.12944 17.7533 8.15106 17.7008 8.19038 17.6611L9.63069 16.2071V17.5405C9.63069 17.7994 9.84056 18.0093 10.0994 18.0093C10.3583 18.0093 10.5682 17.7994 10.5682 17.5405V16.2071L12.0086 17.6611ZM27.4456 17.4381H28.4794C28.9846 17.4381 29.3955 17.8491 29.3955 18.3543C29.3955 20.4551 27.772 22.1826 25.714 22.3513C26.6167 20.8871 27.2223 19.2213 27.4456 17.4381ZM27.5422 15.7711H28.4794C29.9038 15.7711 31.0625 16.9299 31.0625 18.3543C31.0625 21.4856 28.5151 24.0331 25.3838 24.0331H24.4775C24.6843 23.7974 24.8822 23.5539 25.0706 23.3036H25.3838C28.1128 23.3036 30.3331 21.0834 30.3331 18.3543C30.3331 17.3322 29.5015 16.5007 28.4794 16.5007H27.527C27.5387 16.2584 27.5419 16.0137 27.5422 15.7711Z" fill="black"/>
<path d="M14.5881 10.6607C14.8438 10.6607 15.0511 10.4534 15.0511 10.1977C15.0511 9.05006 16.2859 8.97344 16.2859 7.37844C16.2859 5.78187 15.0511 5.709 15.0511 4.55881C15.0511 3.41231 16.2859 3.33325 16.2859 1.73919C16.2859 1.48344 16.0786 1.27612 15.8229 1.27612C15.5671 1.27612 15.3598 1.48344 15.3598 1.73919C15.3598 2.88687 14.125 2.96369 14.125 4.55881C14.125 6.15556 15.3598 6.22812 15.3598 7.37844C15.3598 8.526 14.125 8.60275 14.125 10.1977C14.125 10.4534 14.3323 10.6607 14.5881 10.6607Z" fill="black"/>
<path d="M18.0881 10.6607C18.3438 10.6607 18.5511 10.4534 18.5511 10.1977C18.5511 9.05006 19.7859 8.97344 19.7859 7.37844C19.7859 5.78187 18.5511 5.709 18.5511 4.55881C18.5511 3.41231 19.7859 3.33325 19.7859 1.73919C19.7859 1.48344 19.5786 1.27612 19.3229 1.27612C19.0671 1.27612 18.8598 1.48344 18.8598 1.73919C18.8598 2.88687 17.625 2.96369 17.625 4.55881C17.625 6.15556 18.8598 6.22812 18.8598 7.37844C18.8598 8.526 17.625 8.60275 17.625 10.1977C17.625 10.4534 17.8323 10.6607 18.0881 10.6607Z" fill="black"/>
<path d="M11.0881 10.6607C11.3438 10.6607 11.5511 10.4534 11.5511 10.1977C11.5511 9.05006 12.7859 8.97344 12.7859 7.37844C12.7859 5.78187 11.5511 5.709 11.5511 4.55881C11.5511 3.41231 12.7859 3.33325 12.7859 1.73919C12.7859 1.48344 12.5786 1.27612 12.3229 1.27612C12.0671 1.27612 11.8598 1.48344 11.8598 1.73919C11.8598 2.88687 10.625 2.96369 10.625 4.55881C10.625 6.15556 11.8598 6.22812 11.8598 7.37844C11.8598 8.526 10.625 8.60275 10.625 10.1977C10.625 10.4534 10.8323 10.6607 11.0881 10.6607Z" fill="black"/>
</g>
<defs>
<clipPath id="clip0_81_6239">
<rect width="32" height="32" fill="white"/>
</clipPath>
</defs>
</svg>
