<svg width="33" height="32" viewBox="0 0 33 32" fill="none" xmlns="http://www.w3.org/2000/svg">
<path d="M16.5 28C23.1274 28 28.5 22.6274 28.5 16C28.5 9.37258 23.1274 4 16.5 4C9.87258 4 4.5 9.37258 4.5 16C4.5 22.6274 9.87258 28 16.5 28Z" stroke="#FEFEFE" stroke-width="2" stroke-miterlimit="10"/>
<path d="M16.5 20C19.2614 20 21.5 17.7614 21.5 15C21.5 12.2386 19.2614 10 16.5 10C13.7386 10 11.5 12.2386 11.5 15C11.5 17.7614 13.7386 20 16.5 20Z" stroke="#FEFEFE" stroke-width="2" stroke-miterlimit="10"/>
<path d="M8.47461 24.9218C9.22787 23.4408 10.3763 22.1971 11.7926 21.3284C13.209 20.4598 14.8382 20 16.4997 20C18.1613 20 19.7904 20.4598 21.2068 21.3284C22.6232 22.1971 23.7716 23.4407 24.5248 24.9217" stroke="#FEFEFE" stroke-width="2" stroke-linecap="round" stroke-linejoin="round"/>
</svg>
